<svg viewBox="0 0 280 97" xmlns="http://www.w3.org/2000/svg"><g fill="none" fill-rule="evenodd"><path d="M280 .95H0v95.1h280V.95z"/><path d="M165.439 69.964c.342 0 .607.103.795.308.188.205.282.478.282.82v23.267l-.005.152c-.044.685-.402 1.027-1.072 1.027a.927.927 0 01-.744-.333c-.188-.222-.282-.504-.282-.846v-3.74l-.162.316c-.778 1.453-1.861 2.586-3.25 3.399-1.488.871-3.172 1.307-5.053 1.307-2.873 0-5.054-.803-6.542-2.409-1.488-1.606-2.231-3.963-2.231-7.073V71.092l.005-.142a1.11 1.11 0 01.277-.678c.188-.205.453-.308.795-.308s.607.103.795.308c.188.205.282.478.282.82v14.862l.004.385c.05 2.402.58 4.187 1.587 5.355 1.06 1.23 2.702 1.845 4.925 1.845 2.565 0 4.626-.811 6.182-2.434 1.556-1.623 2.334-3.784 2.334-6.483v-13.53l.006-.142c.023-.276.115-.502.277-.678.188-.205.453-.308.795-.308zm10.876-11.07c.342 0 .607.103.795.308.188.205.282.495.282.871v15.119l.156-.336c.748-1.546 1.816-2.75 3.205-3.61 1.488-.923 3.275-1.384 5.361-1.384 2.19 0 4.122.53 5.797 1.589 1.676 1.059 2.976 2.545 3.9 4.458.923 1.914 1.385 4.152 1.385 6.714 0 2.597-.462 4.878-1.385 6.842-.924 1.965-2.224 3.485-3.9 4.561-1.675 1.077-3.608 1.615-5.797 1.615-2.086 0-3.873-.462-5.361-1.384-1.488-.923-2.608-2.255-3.36-3.998v4.05l-.005.151c-.045.685-.403 1.027-1.073 1.027-.342 0-.607-.103-.795-.308-.188-.205-.282-.495-.282-.87V60.072l.005-.152c.044-.684.402-1.027 1.072-1.027zm-56.331 0c.342 0 .607.103.795.308.188.205.282.495.282.871v14.76l.155-.316a8.025 8.025 0 013.231-3.374c1.505-.854 3.232-1.281 5.182-1.281 2.975 0 5.224.794 6.746 2.383 1.522 1.589 2.283 3.938 2.283 7.047v15.067l-.006.156c-.023.302-.115.54-.276.716-.188.205-.453.307-.795.307s-.607-.102-.795-.307c-.189-.205-.283-.496-.283-.872V79.55l-.003-.377c-.048-2.472-.577-4.286-1.587-5.44-1.06-1.214-2.77-1.82-5.13-1.82-2.634 0-4.746.811-6.336 2.434-1.59 1.623-2.386 3.784-2.386 6.483v13.53l-.006.156c-.023.302-.115.54-.276.716-.188.205-.453.307-.795.307-.308 0-.565-.11-.77-.333-.205-.222-.308-.504-.308-.846V60.073l.006-.156c.023-.3.115-.54.276-.715.188-.205.454-.308.796-.308zm66.079 13.07c-2.77 0-4.908.939-6.413 2.818-1.505 1.88-2.258 4.527-2.258 7.944 0 3.45.753 6.116 2.258 7.995 1.505 1.879 3.66 2.818 6.464 2.818 2.736 0 4.874-.956 6.413-2.87 1.54-1.913 2.309-4.595 2.309-8.046 0-3.382-.77-6.005-2.309-7.867-1.539-1.862-3.694-2.793-6.464-2.793zM255.043.95c.85 0 1.582.283 2.196.85.589.524.906 1.229.951 2.115l.006.225v28.016l16.122-14.527c.521-.442 1.077-.664 1.67-.664.757 0 1.42.291 1.988.873.592.582.888 1.234.888 1.956 0 .593-.235 1.137-.705 1.633l-.148.148-12.89 11.349 14.098 14.597c.52.535.781 1.14.781 1.815 0 .745-.308 1.409-.923 1.99-.592.583-1.279.874-2.06.874-.76 0-1.42-.274-1.98-.822l-.15-.156-16.691-17.46v15.212c0 .993-.33 1.784-.992 2.375-.638.567-1.394.85-2.268.85-.874 0-1.618-.27-2.232-.814-.567-.524-.872-1.249-.916-2.175l-.005-.236V4.14c0-.992.319-1.772.957-2.34a3.43 3.43 0 012.303-.85zm-12.826 15.375c.85 0 1.582.294 2.196.882.589.543.906 1.274.951 2.193l.006.233v29.222c0 1.029-.33 1.85-.992 2.463a3.233 3.233 0 01-2.268.882c-.874 0-1.618-.282-2.232-.846-.567-.543-.872-1.294-.916-2.255l-.005-.244V19.633c0-1.029.319-1.838.957-2.426a3.36 3.36 0 012.303-.882zM233.6.95v.003l.06.002a2.242 2.242 0 01-.095 4.478v.001h-3.327c-.994 0-1.768.094-2.323.28-.554.164-1.051.61-1.49 1.217-.416.584-.566 1.694-.728 2.815-.128 1.014-.197 2.366-.207 4.056l-.001.43v2.093h5.773a1.922 1.922 0 010 3.844l-5.773-.001v28.806c0 .916-.282 1.661-.846 2.235l-.146.14c-.638.567-1.394.85-2.268.85-.874 0-1.618-.27-2.232-.814-.567-.524-.872-1.249-.916-2.175l-.005-.236V20.168h-5.133a1.922 1.922 0 010-3.843h5.133v-3.81c0-4.182.878-7.15 2.634-8.902 1.683-1.701 3.982-2.588 6.896-2.659l.384-.004h4.61zm-78.03 15.375c.8 0 1.423.287 1.873.86.474.575.712 1.244.712 2.01 0 .717-.213 1.339-.637 1.865-.425.502-1.036.753-1.835.753-3.371 0-5.673.837-7.545 2.511-1.81 1.64-2.772 3.82-2.81 6.538v17.993c0 1.029-.33 1.85-.991 2.463a3.233 3.233 0 01-2.268.882c-.874 0-1.618-.282-2.232-.846-.59-.565-.897-1.357-.92-2.376l-.001-.123V19.633c0-1.029.319-1.838.956-2.426a3.36 3.36 0 012.303-.882c.85 0 1.583.294 2.197.882.612.565.93 1.333.955 2.304l.002.122v4.512c.624-2.224 1.872-4.077 3.745-5.56 1.898-1.507 3.85-2.26 6.496-2.26zm-33.055-10.25c.786 0 1.467.254 2.04.763.596.53.893 1.24.893 2.132v7.355h7.057c1.01 0 1.84.78 1.916 1.772l.006.15c0 1.01-.78 1.84-1.772 1.916l-.15.006-7.058-.001.001 18.75.002.43c.01 1.69.078 3.042.206 4.056.162 1.12.312 2.23.728 2.814.44.608.936 1.054 1.491 1.217.493.166 1.16.259 2 .277l.322.003h3.328a2.243 2.243 0 01.253 4.463l-.157.017-.062.002.001.003h-4.61l-.384-.005c-2.914-.07-5.213-.957-6.896-2.659-1.696-1.691-2.573-4.516-2.631-8.473l-.004-.428V20.168h-4.49c-1.012 0-1.84-.78-1.917-1.771l-.006-.15c0-1.011.781-1.84 1.772-1.916l.15-.006h4.623l.51-7.355c0-.933.276-1.655.829-2.164.553-.487 1.222-.731 2.009-.731zm73.208 10.25c3.34 0 6.447.86 8.762 2.422 1.836 1.238 3.327 3.146 3.93 5.027.346 1.08.399 1.48.402 3.048.002.976-.025 1.635-.078 1.94-.542 3.083-1.833 5.219-4.073 6.74-1.802 1.223-4.065 1.94-7.025 2.222-1.49.142-4.215.129-5.98-.03-1.499-.134-3.338-.37-4.123-.53-.657-.133-2.907-.514-2.926-.496a48.61 48.61 0 00-.237 1.519c-.196 1.32-.224 1.65-.228 2.704-.004 1.072.01 1.26.138 1.755.41 1.59 1.312 2.655 2.95 3.478 1.61.809 3.299 1.16 5.85 1.213 1.13.024 1.709.008 2.415-.068 1.714-.185 2.494-.387 4.77-1.237.568-.212 1.146-.404 1.286-.428.3-.05.861.054 1.188.223.59.304 1.085 1.115 1.082 1.77-.004.767-.258 1.231-1.005 1.835-1.787 1.443-4.068 2.329-6.791 2.635-.971.11-3.188.126-4.259.031-3.015-.266-5.109-.79-7.022-1.757-1.493-.754-2.632-1.69-3.483-2.862-.21-.287-.387-.53-.395-.539-.008-.009-.147.157-.309.37-.715.937-1.81 1.944-2.878 2.65-1.544 1.019-3.76 1.797-6.002 2.106-.668.092-2.887.168-3.456.118-3.93-.344-6.932-1.548-9.116-3.654-2.222-2.144-3.176-4.938-2.8-8.205.434-3.758 2.193-6.413 5.277-7.962 2.377-1.193 4.748-1.647 8.61-1.648 2.743-.001 5.042.227 8.549.846a52.71 52.71 0 001.668.28c.073 0 .132-.281.29-1.401.289-2.028.34-2.727.262-3.539-.092-.945-.21-1.395-.563-2.128-.91-1.89-3.07-3.046-6.538-3.5-.992-.13-3.281-.148-4.275-.034-1.664.191-2.593.435-4.665 1.223-1.212.461-1.218.462-1.701.434-.831-.05-1.399-.432-1.763-1.187-.15-.311-.176-.44-.176-.859 0-.63.162-.963.723-1.497 1.26-1.197 3.38-2.216 5.52-2.654 1.371-.28 2.046-.339 3.851-.336 1.868.005 3.063.11 4.723.423 2.761.522 4.858 1.44 6.439 2.822.469.41 1.176 1.217 1.48 1.688.092.144.187.262.211.262.024 0 .178-.173.34-.384 2.395-3.098 6.427-4.852 11.15-4.85zm-25.014 19.083c-2.388.137-3.36.35-4.794 1.05-.735.36-1.242.75-1.643 1.262-.575.737-.922 1.469-1.164 2.455-.177.718-.194 2.597-.031 3.203.275 1.02.602 1.597 1.338 2.361 1.006 1.047 2.333 1.745 3.98 2.094.841.179.816.177 2.226.155 1.022-.016 1.405-.045 1.823-.14 1.776-.402 3.36-1.31 4.508-2.585 1.048-1.163 1.908-2.905 2.381-4.824.267-1.082.71-4.094.612-4.156-.04-.025-.273-.063-.52-.086a58.668 58.668 0 01-1.569-.19c-3.651-.483-5.891-.67-7.147-.599zm22.27-14.45c-1.3.244-2.4.688-3.369 1.362-1.79 1.246-3.027 3.124-3.715 5.645-.27.99-.343 1.37-.584 3.077l-.222 1.574.298.034c.9.103 2.928.355 4.106.511.741.099 1.65.203 2.021.233 1.072.087 2.993.079 4.043-.017 1.48-.133 2.39-.37 3.507-.91.93-.449 1.47-.908 1.98-1.683.754-1.14 1.047-2.22 1.04-3.825-.006-1.143-.1-1.619-.484-2.44-.858-1.834-2.873-3.148-5.516-3.596-.659-.112-2.429-.092-3.105.035zM242.196.95c1.14 0 2.061.314 2.763.943.701.61 1.052 1.42 1.052 2.435 0 .995-.35 1.806-1.052 2.435-.702.609-1.634.913-2.796.913s-2.093-.304-2.795-.913c-.702-.629-1.052-1.44-1.052-2.435 0-.994.35-1.806 1.052-2.435.724-.629 1.666-.943 2.828-.943z" fill="#000" fill-rule="nonzero"/><path d="M50.502 8.892l22.51 12.133a3.843 3.843 0 012.02 3.387l-.02 19.547 20.444 11.02a3.843 3.843 0 012.021 3.386l-.022 21.808a3.843 3.843 0 01-2.013 3.375L72.954 95.732a3.851 3.851 0 01-3.699-.016l-20.361-11.27-20.83 11.286a3.851 3.851 0 01-3.7-.016L1.983 83.328A3.843 3.843 0 010 79.966V58.412c0-1.407.77-2.701 2.007-3.375l20.438-11.126V24.459c0-1.407.77-2.702 2.007-3.375L46.833 8.9a3.851 3.851 0 013.669-.008zm19.41 42.376l-15.987 8.7a2.562 2.562 0 00-1.339 2.25v13.974c0 .932.507 1.79 1.322 2.242l16.001 8.855a2.568 2.568 0 002.466.012l16.047-8.694a2.562 2.562 0 001.342-2.25l.014-14.172c0-.943-.517-1.81-1.348-2.258l-16.072-8.664a2.568 2.568 0 00-2.445.005zm-44.898 0l-15.98 8.7a2.562 2.562 0 00-1.338 2.25v13.974c0 .932.506 1.79 1.322 2.242l16 8.855a2.568 2.568 0 002.466.012l16.047-8.694a2.562 2.562 0 001.342-2.25l.014-14.13c0-.942-.515-1.808-1.343-2.256l-16.08-8.706a2.568 2.568 0 00-2.45.003zm22.448-33.955l-15.983 8.701a2.562 2.562 0 00-1.338 2.25v13.972c0 .933.508 1.793 1.327 2.244l16.041 8.836a2.568 2.568 0 002.462.008l16.006-8.677a2.562 2.562 0 001.341-2.25l.014-14.165a2.562 2.562 0 00-1.347-2.258l-16.077-8.666a2.568 2.568 0 00-2.446.005z" fill="#7F8C2B" fill-rule="nonzero"/></g></svg>