<svg viewBox="0 0 74 74" xmlns="http://www.w3.org/2000/svg"><g fill="none" fill-rule="evenodd"><path d="M.429.429H73.57V73.57H.43V.43z"/><path d="M38.323 4.205l16.89 9.164a2.905 2.905 0 011.516 2.557l-.014 14.763 15.34 8.323a2.905 2.905 0 011.516 2.558l-.016 16.47a2.905 2.905 0 01-1.51 2.55L55.17 69.792a2.873 2.873 0 01-2.776-.013l-15.279-8.512-15.63 8.525a2.873 2.873 0 01-2.775-.013L1.917 60.423a2.906 2.906 0 01-1.488-2.539V41.606c0-1.063.577-2.041 1.505-2.55l15.337-8.403v-14.69c0-1.064.577-2.041 1.505-2.55L35.57 4.211a2.873 2.873 0 012.753-.006zM52.888 36.21l-11.997 6.57a1.937 1.937 0 00-1.004 1.7v10.554c0 .704.38 1.352.992 1.693l12.006 6.688c.575.32 1.273.324 1.85.009l12.042-6.566a1.937 1.937 0 001.007-1.7l.01-10.703a1.94 1.94 0 00-1.01-1.705l-12.061-6.544a1.916 1.916 0 00-1.835.004zm-33.69 0L7.207 42.78a1.937 1.937 0 00-1.004 1.7v10.554c0 .704.38 1.352.992 1.693l12.006 6.688c.575.32 1.273.324 1.85.009l12.041-6.566a1.937 1.937 0 001.007-1.7l.01-10.672a1.934 1.934 0 00-1.007-1.703l-12.066-6.576a1.916 1.916 0 00-1.838.003zm16.844-25.645L24.05 17.137a1.937 1.937 0 00-1.004 1.699v10.552c0 .705.381 1.355.996 1.695l12.036 6.673a1.917 1.917 0 001.848.007l12.01-6.554a1.937 1.937 0 001.007-1.699l.01-10.699a1.94 1.94 0 00-1.01-1.705l-12.065-6.545a1.916 1.916 0 00-1.835.004z" fill="#FFF" fill-rule="nonzero"/></g></svg>